<svg width="90" height="71" viewBox="0 0 90 71" fill="none" xmlns="http://www.w3.org/2000/svg">
<path fill-rule="evenodd" clip-rule="evenodd" d="M9 8.17773C8.44771 8.17773 8 8.62545 8 9.17773V61.1777C8 61.73 8.44771 62.1777 9 62.1777H81C81.5523 62.1777 82 61.73 82 61.1777V22.1545C82 21.6022 81.5523 21.1545 81 21.1545H44.2785C40.6451 21.1545 37.3681 18.9697 35.9707 15.6158L33.1281 8.79314C32.9729 8.42048 32.6087 8.17773 32.205 8.17773H9ZM0 9.17773C0 4.20717 4.02944 0.177734 9 0.177734H32.205C35.8384 0.177734 39.1154 2.36247 40.5128 5.71641L43.3554 12.5391L39.663 14.0774L43.3554 12.5391C43.5107 12.9117 43.8748 13.1545 44.2785 13.1545H81C85.9706 13.1545 90 17.1839 90 22.1545V61.1777C90 66.1483 85.9706 70.1777 81 70.1777H9C4.02944 70.1777 0 66.1483 0 61.1777V9.17773Z" fill="#AA60F2"/>
</svg>
