<svg width="73" height="70" viewBox="0 0 73 70" fill="none" xmlns="http://www.w3.org/2000/svg">
<path d="M11 11H61V57H11V11Z" fill="url(#paint0_linear_105_3)"/>
<path fill-rule="evenodd" clip-rule="evenodd" d="M70.4964 2.89696C72.8412 4.82797 73.1766 8.29418 71.2456 10.639L45.7492 41.5989L37.258 34.6061L62.7544 3.64619C64.6854 1.3014 68.1516 0.965962 70.4964 2.89696Z" fill="#60F2A3"/>
<path d="M34.2813 45.7614L35.5715 37.7861L42.6429 44.0718L35.6372 46.8506C34.9156 47.1368 34.1573 46.5276 34.2813 45.7614Z" fill="#60F2A3"/>
<path fill-rule="evenodd" clip-rule="evenodd" d="M0 9C0 4.02944 4.02944 0 9 0H50C52.2091 0 54 1.79086 54 4C54 6.20914 52.2091 8 50 8H9C8.44772 8 8 8.44771 8 9V60.5C8 61.0523 8.44771 61.5 9 61.5H63C63.5523 61.5 64 61.0523 64 60.5V28.5C64 26.2909 65.7909 24.5 68 24.5C70.2091 24.5 72 26.2909 72 28.5V60.5C72 65.4706 67.9706 69.5 63 69.5H9C4.02944 69.5 0 65.4706 0 60.5V9Z" fill="#60F2A3"/>
<defs>
<linearGradient id="paint0_linear_105_3" x1="36.3333" y1="-40.98" x2="33.8186" y2="56.944" gradientUnits="userSpaceOnUse">
<stop stop-color="#60F2A3"/>
<stop offset="1" stop-color="#60F2A3" stop-opacity="0"/>
</linearGradient>
</defs>
</svg>
