<svg width="89" height="83" viewBox="0 0 89 83" fill="none" xmlns="http://www.w3.org/2000/svg">
<path fill-rule="evenodd" clip-rule="evenodd" d="M58 9H32V17H58V9ZM71 17H78C79.6569 17 81 18.3431 81 20V72C81 73.6569 79.6569 75 78 75H11C9.34315 75 8 73.6569 8 72V20C8 18.3431 9.34314 17 11 17H19V9H11C4.92487 9 0 13.9249 0 20V72C0 78.0751 4.92487 83 11 83H78C84.0751 83 89 78.0751 89 72V20C89 13.9249 84.0751 9 78 9H71V17Z" fill="#29FCEF"/>
<path d="M21 4.5C21 2.01472 23.0147 0 25.5 0C27.9853 0 30 2.01472 30 4.5V20.5C30 22.9853 27.9853 25 25.5 25C23.0147 25 21 22.9853 21 20.5V4.5Z" fill="#29FCEF"/>
<path d="M60 4.5C60 2.01472 62.0147 0 64.5 0C66.9853 0 69 2.01472 69 4.5V20.5C69 22.9853 66.9853 25 64.5 25C62.0147 25 60 22.9853 60 20.5V4.5Z" fill="#29FCEF"/>
</svg>
